<svg xmlns="http://www.w3.org/2000/svg" version="1.0" width="433.000000pt" height="437.000000pt" viewBox="0 0 433.000000 437.000000" preserveAspectRatio="xMidYMid meet">
<g transform="translate(0.000000,437.000000) scale(0.100000,-0.100000)" fill="#000000" stroke="none">
<path d="M2036 4064 c-292 -40 -510 -106 -673 -205 -34 -21 -109 -60 -167 -87 -149 -71 -238 -136 -368 -271 -178 -184 -295 -361 -403 -609 -147 -339 -195 -595 -161 -865 33 -263 97 -496 174 -639 69 -129 80 -151 127 -251 33 -71 62 -115 108 -165 34 -37 82 -93 107 -126 112 -148 415 -366 613 -441 89 -33 144 -34 158 -1 13 27 -17 31 289 -43 188 -46 294 -61 429 -61 52 0 130 -7 173 -16 55 -11 113 -15 186 -12 94 3 114 8 166 33 33 17 80 49 106 72 32 29 74 52 131 73 180 67 244 104 342 197 51 48 138 129 193 179 122 112 161 174 216 349 22 72 58 172 79 222 21 51 48 135 60 185 12 51 36 154 55 228 43 179 54 257 54 389 0 60 6 138 14 173 49 216 20 366 -92 489 -41 45 -58 75 -83 145 -90 256 -212 421 -430 582 -275 203 -469 316 -664 385 -277 99 -490 125 -739 91z m445 -94 c233 -45 465 -145 696 -300 263 -177 367 -264 453 -378 45 -61 140 -237 140 -261 0 -5 -57 28 -127 75 -97 65 -164 122 -283 237 -265 260 -497 421 -749 522 -155 61 -335 105 -437 105 -23 0 -57 3 -75 8 -33 7 -32 7 21 14 83 9 252 -1 361 -22z m-203 -95 c128 -21 266 -67 407 -135 106 -51 293 -167 335 -206 22 -21 -207 95 -280 142 -161 103 -367 179 -555 203 -40 5 -55 9 -35 10 19 0 77 -6 128 -14z m-141 -76 c97 -11 250 -45 311 -70 30 -12 15 -14 -135 -11 -201 5 -330 -8 -558 -53 -333 -66 -360 -81 -580 -326 -22 -24 -82 -77 -133 -117 l-93 -72 22 40 c44 79 148 207 240 295 146 141 278 227 449 292 82 31 91 32 233 33 81 0 191 -5 244 -11z m-736 -57 c-217 -131 -433 -367 -551 -602 -24 -47 -52 -111 -64 -142 -16 -42 -49 -89 -126 -178 -158 -181 -179 -225 -270 -576 l-48 -189 -1 125 c-1 130 15 248 51 379 29 105 66 203 88 226 10 11 21 36 25 55 12 57 70 162 175 318 165 244 212 298 331 378 161 109 319 202 379 224 79 28 81 25 11 -18z m1159 -127 c120 -27 223 -63 255 -91 21 -19 24 -24 10 -19 -260 94 -343 109 -590 109 -110 0 -235 -6 -278 -12 -104 -16 -355 -83 -469 -126 -51 -19 -94 -33 -96 -31 -11 11 116 77 180 94 109 30 314 70 441 86 145 18 441 13 547 -10z m-399 -111 c195 -36 586 -178 912 -332 l118 -55 131 -221 c144 -241 209 -372 228 -455 19 -79 7 -254 -24 -366 -71 -257 -203 -593 -361 -920 -65 -134 -79 -157 -135 -208 -108 -100 -390 -222 -646 -279 -85 -19 -128 -22 -309 -22 -231 0 -316 12 -427 60 -35 14 -99 40 -143 58 -74 29 -88 39 -210 161 -249 246 -370 485 -457 899 -31 143 -32 162 -32 371 0 197 2 230 23 314 41 164 85 271 179 437 57 101 106 139 422 328 286 171 355 205 460 227 107 22 166 23 271 3z m385 0 c42 -8 115 -29 162 -46 98 -34 302 -136 347 -173 27 -22 21 -21 -50 11 -111 50 -202 86 -400 160 -176 65 -188 75 -59 48z m834 -317 c93 -69 313 -335 421 -507 75 -119 130 -272 132 -369 2 -64 -123 -506 -173 -611 -18 -37 -20 -40 -16 -15 28 157 38 281 32 405 -10 237 -95 689 -149 797 -57 112 -161 211 -403 385 -67 48 -124 95 -128 103 -6 16 155 -91 284 -188z m-2080 108 c0 -2 -10 -9 -22 -15 -22 -11 -22 -10 -4 4 21 17 26 19 26 11z m2102 -320 c33 -36 99 -159 144 -263 24 -57 44 -106 44 -110 0 -4 -22 34 -49 83 -26 50 -80 144 -120 210 -40 66 -76 125 -79 130 -7 13 37 -24 60 -50z m412 -94 c11 -13 46 -110 46 -129 0 -2 -34 42 -75 97 -41 56 -75 104 -75 107 0 7 86 -55 104 -75z m-3006 -158 c-97 -251 -120 -525 -68 -828 60 -348 174 -645 322 -836 15 -20 28 -40 28 -43 0 -4 -43 30 -96 76 -225 192 -374 519 -390 858 -3 58 -10 118 -15 133 -14 45 60 371 113 498 34 84 116 219 132 219 2 0 -10 -35 -26 -77z m-220 -148 c-6 -14 -13 -23 -15 -21 -5 5 15 46 22 46 3 0 -1 -11 -7 -25z m3086 -495 c1 -182 -2 -241 -17 -310 -50 -235 -160 -448 -396 -775 -157 -219 -406 -363 -716 -418 -121 -22 -344 -38 -380 -28 -23 6 -10 9 62 14 123 9 247 37 412 93 237 80 398 168 486 266 75 83 245 451 380 821 112 308 154 494 142 631 l-6 61 16 -65 c13 -50 17 -118 17 -290z m-3234 -95 l-7 -120 -1 91 c-2 79 5 161 13 152 1 -2 -1 -57 -5 -123z m3375 -477 c-4 -13 -22 -58 -41 -100 -18 -42 -47 -125 -64 -185 -58 -196 -73 -216 -361 -488 -99 -93 -166 -138 -263 -175 -32 -12 -38 -23 65 131 43 64 96 132 119 151 57 49 302 326 382 434 37 49 89 126 115 171 26 45 49 82 51 83 2 0 0 -10 -3 -22z m-3245 -118 c36 -70 166 -233 252 -316 105 -100 207 -177 323 -243 50 -27 129 -78 178 -113 48 -35 129 -88 181 -118 98 -58 169 -110 150 -110 -23 0 -150 43 -196 66 -25 13 -105 41 -177 63 -211 64 -257 94 -427 286 -110 125 -314 463 -314 522 0 12 13 -3 30 -37z m2410 -798 c0 -4 -19 -29 -42 -54 -33 -36 -55 -51 -97 -63 -30 -8 -56 -13 -58 -12 -4 4 179 136 190 137 4 0 7 -3 7 -8z m-894 -111 c193 -41 270 -46 379 -27 50 8 106 18 125 21 91 16 -69 -46 -182 -70 l-67 -14 -190 53 c-104 30 -198 56 -208 59 -10 3 -13 5 -7 6 6 0 73 -12 150 -28z"/>
</g>
</svg>