<?xml version="1.0" encoding="utf-8"?>
<!-- Generator: Adobe Illustrator 26.1.0, SVG Export Plug-In . SVG Version: 6.00 Build 0)  -->
<svg version="1.1" id="Layer_1" xmlns="http://www.w3.org/2000/svg"
	xmlns:xlink="http://www.w3.org/1999/xlink" x="0px" y="0px"
	viewBox="0 0 100 100" style="enable-background:new 0 0 100 100;" xml:space="preserve">
<style type="text/css">
	.st0{fill-rule:evenodd;clip-rule:evenodd;fill:#FFFFFF;}
	.st1{fill:#FFFFFF;}
</style>
<g>
	<path class="st0" d="M49.6,5.9c-24.9,0-45,20.2-45,45c0,19.9,12.9,36.8,30.8,42.7c2.2,0.4,3.1-1,3.1-2.2c0-1.1,0-4.6-0.1-8.4
		c-12.5,2.7-15.2-5.3-15.2-5.3c-2-5.2-5-6.6-5-6.6c-4.1-2.8,0.3-2.7,0.3-2.7c4.5,0.3,6.9,4.6,6.9,4.6c4,6.9,10.5,4.9,13.1,3.7
		c0.4-2.9,1.6-4.9,2.9-6c-10-1.1-20.5-5-20.5-22.3c0-4.9,1.8-8.9,4.6-12.1c-0.5-1.1-2-5.7,0.4-11.9c0,0,3.8-1.2,12.4,4.6
		c3.6-1,7.4-1.5,11.3-1.5c3.8,0,7.7,0.5,11.3,1.5c8.6-5.8,12.4-4.6,12.4-4.6c2.5,6.2,0.9,10.8,0.4,11.9c2.9,3.2,4.6,7.2,4.6,12.1
		c0,17.3-10.5,21.1-20.6,22.2c1.6,1.4,3.1,4.1,3.1,8.3c0,6-0.1,10.9-0.1,12.4c0,1.2,0.8,2.6,3.1,2.2c17.9-6,30.8-22.8,30.8-42.7
		C94.7,26,74.5,5.9,49.6,5.9z"/>
	<path class="st1" d="M21.7,70.5c-0.1,0.2-0.5,0.3-0.8,0.1c-0.3-0.1-0.5-0.5-0.4-0.7c0.1-0.2,0.4-0.3,0.8-0.1
		C21.6,70,21.8,70.3,21.7,70.5L21.7,70.5z M21.1,70.1"/>
	<path class="st1" d="M23.5,72.5c-0.2,0.2-0.6,0.1-0.9-0.2c-0.3-0.3-0.3-0.7-0.1-0.9c0.2-0.2,0.6-0.1,0.9,0.2
		C23.6,71.9,23.7,72.3,23.5,72.5L23.5,72.5z M23.1,72.1"/>
	<path class="st1" d="M25.3,75.1c-0.3,0.2-0.7,0-1-0.4c-0.3-0.4-0.3-0.9,0-1.1c0.3-0.2,0.7,0,1,0.4C25.5,74.4,25.5,74.9,25.3,75.1
		L25.3,75.1z M25.3,75.1"/>
	<path class="st1" d="M27.7,77.6c-0.2,0.3-0.8,0.2-1.2-0.2c-0.4-0.4-0.5-0.9-0.3-1.2c0.3-0.3,0.8-0.2,1.2,0.2
		C27.8,76.8,28,77.4,27.7,77.6L27.7,77.6z M27.7,77.6"/>
	<path class="st1" d="M31,79.1c-0.1,0.4-0.6,0.5-1.1,0.4c-0.5-0.2-0.8-0.6-0.7-0.9c0.1-0.4,0.6-0.5,1.1-0.4
		C30.8,78.3,31.2,78.7,31,79.1L31,79.1z M31,79.1"/>
	<path class="st1" d="M34.7,79.4c0,0.4-0.4,0.7-1,0.7c-0.5,0-1-0.3-1-0.7c0-0.4,0.4-0.7,1-0.7C34.3,78.7,34.7,79,34.7,79.4
		L34.7,79.4z M34.7,79.4"/>
	<path class="st1" d="M38.2,78.8c0.1,0.4-0.3,0.7-0.8,0.8c-0.5,0.1-1-0.1-1.1-0.5c-0.1-0.4,0.3-0.7,0.8-0.8
		C37.6,78.2,38.1,78.4,38.2,78.8L38.2,78.8z M38.2,78.8"/>
</g>
</svg>